<?xml version="1.0" encoding="utf-8"?>
<svg version="1.1" xmlns:xlink="http://www.w3.org/1999/xlink" width="76px" height="61px" xmlns="http://www.w3.org/2000/svg">
  <g transform="matrix(1 0 0 1 -308 -229 )">
    <path d="M 309 233  A 3 3 0 0 1 312 230 L 380 230  A 3 3 0 0 1 383 233 L 383 286  A 3 3 0 0 1 380 289 L 312 289  A 3 3 0 0 1 309 286 L 309 233  Z " fill-rule="nonzero" fill="#ffffff" stroke="none" />
    <path d="M 308.5 233  A 3.5 3.5 0 0 1 312 229.5 L 380 229.5  A 3.5 3.5 0 0 1 383.5 233 L 383.5 286  A 3.5 3.5 0 0 1 380 289.5 L 312 289.5  A 3.5 3.5 0 0 1 308.5 286 L 308.5 233  Z " stroke-width="1" stroke-dasharray="3,1" stroke="#40a9ff" fill="none" stroke-dashoffset="0.5" />
  </g>
</svg>