<?xml version="1.0" encoding="utf-8"?>
<svg version="1.1" xmlns:xlink="http://www.w3.org/1999/xlink" width="171px" height="125px" xmlns="http://www.w3.org/2000/svg">
  <g transform="matrix(1 0 0 1 -657 -304 )">
    <path d="M 657 304  L 828 304  L 828 429  L 657 429  L 657 304  " fill-rule="nonzero" fill="#cccccc" stroke="none" />
    <path d="M 666 313  L 819 313  L 819 420  L 666 420  L 666 313  " fill-rule="nonzero" fill="#ffffff" stroke="none" />
    <path d="M 755.295 341.5  C 750.045 341.5  745.92 337.375  745.92 332.125  C 745.92 326.875  750.045 322.75  755.295 322.75  C 760.545 322.75  764.67 326.875  764.67 332.125  C 764.67 337.375  760.545 341.5  755.295 341.5  " fill-rule="nonzero" fill="#cccccc" stroke="none" />
    <path d="M 669 417  L 669 361.45  L 705.75 336.2  L 757.2 372.701754385965  L 786.6 351.35  L 816 372.701754385965  L 816 417  L 669 417  " fill-rule="nonzero" fill="#169bd5" stroke="none" />
  </g>
</svg>