<?xml version="1.0" encoding="utf-8"?>
<svg version="1.1" xmlns:xlink="http://www.w3.org/1999/xlink" width="45px" height="39px" xmlns="http://www.w3.org/2000/svg">
  <defs>
    <mask fill="white" id="clip7">
      <path d="M 37.0647321428571 20.921875  C 40.2120535714286 17.7395833333333  41.7857142857143 14.7265625  41.7857142857143 11.8828125  C 41.7857142857143 10.51171875  41.6057477678571 9.30143229166666  41.2458147321429 8.251953125  C 40.8858816964286 7.20247395833333  40.4255022321429 6.36881510416666  39.8646763392857 5.7509765625  C 39.3038504464286 5.13313802083333  38.6216517857143 4.62955729166667  37.8180803571429 4.240234375  C 37.0145089285714 3.85091145833333  36.2276785714286 3.58854166666666  35.4575892857143 3.453125  C 34.6875 3.31770833333333  33.8671875 3.25  32.9966517857143 3.25  C 32.1261160714286 3.25  31.1886160714286 3.4658203125  30.1841517857143 3.8974609375  C 29.1796875 4.3291015625  28.2547433035714 4.87076822916666  27.4093191964286 5.5224609375  C 26.5638950892857 6.17415364583333  25.83984375 6.78352864583333  25.2371651785714 7.3505859375  C 24.6344866071429 7.91764322916666  24.1322544642857 8.43815104166667  23.73046875 8.912109375  C 23.4291294642857 9.28450520833333  23.0189732142857 9.470703125  22.5 9.470703125  C 21.9810267857143 9.470703125  21.5708705357143 9.28450520833333  21.26953125 8.912109375  C 20.8677455357143 8.43815104166667  20.3655133928571 7.91764322916666  19.7628348214286 7.3505859375  C 19.16015625 6.78352864583333  18.4361049107143 6.17415364583333  17.5906808035714 5.5224609375  C 16.7452566964286 4.87076822916666  15.8203125 4.3291015625  14.8158482142857 3.8974609375  C 13.8113839285714 3.4658203125  12.8738839285714 3.25  12.0033482142857 3.25  C 11.1328125 3.25  10.3125 3.31770833333333  9.54241071428571 3.453125  C 8.77232142857143 3.58854166666666  7.98549107142857 3.85091145833333  7.18191964285714 4.240234375  C 6.37834821428571 4.62955729166667  5.69614955357143 5.13313802083333  5.13532366071429 5.7509765625  C 4.57449776785714 6.36881510416666  4.11411830357143 7.20247395833333  3.75418526785714 8.251953125  C 3.39425223214286 9.30143229166666  3.21428571428571 10.51171875  3.21428571428571 11.8828125  C 3.21428571428571 14.7265625  4.77957589285714 17.7311197916667  7.91015625 20.896484375  L 22.5 35.115234375  L 37.0647321428571 20.921875  Z M 41.8108258928571 3.1484375  C 43.9369419642857 5.24739583333333  45 8.15885416666666  45 11.8828125  C 45 15.6236979166667  43.0831473214286 19.4322916666667  39.2494419642857 23.30859375  L 23.6049107142857 38.54296875  C 23.3035714285714 38.84765625  22.9352678571429 39  22.5 39  C 22.0647321428571 39  21.6964285714286 38.84765625  21.3950892857143 38.54296875  L 5.72544642857143 23.2578125  C 5.55803571428571 23.1223958333333  5.32784598214286 22.90234375  5.03487723214286 22.59765625  C 4.74190848214286 22.29296875  4.27734375 21.7386067708333  3.64118303571429 20.9345703125  C 3.00502232142857 20.1305338541667  2.43582589285714 19.3053385416667  1.93359375 18.458984375  C 1.43136160714286 17.6126302083333  0.983537946428572 16.5885416666667  0.590122767857143 15.38671875  C 0.196707589285714 14.1848958333333  0 13.0169270833333  0 11.8828125  C 0 8.15885416666666  1.06305803571429 5.24739583333333  3.18917410714286 3.1484375  C 5.31529017857143 1.04947916666667  8.25334821428571 0  12.0033482142857 0  C 13.0412946428571 0  14.1001674107143 0.181966145833331  15.1799665178571 0.545898437500001  C 16.259765625 0.909830729166663  17.2642299107143 1.40071614583333  18.193359375 2.0185546875  C 19.1224888392857 2.63639322916666  19.921875 3.21614583333333  20.5915178571429 3.7578125  C 21.2611607142857 4.29947916666666  21.8973214285714 4.875  22.5 5.484375  C 23.1026785714286 4.875  23.7388392857143 4.29947916666666  24.4084821428571 3.7578125  C 25.078125 3.21614583333333  25.8775111607143 2.63639322916666  26.806640625 2.0185546875  C 27.7357700892857 1.40071614583333  28.740234375 0.909830729166663  29.8200334821429 0.545898437500001  C 30.8998325892857 0.181966145833331  31.9587053571429 0  32.9966517857143 0  C 36.7466517857143 0  39.6847098214286 1.04947916666667  41.8108258928571 3.1484375  Z " fill-rule="evenodd" />
    </mask>
  </defs>
  <g transform="matrix(1 0 0 1 -756 -1036 )">
    <path d="M 37.0647321428571 20.921875  C 40.2120535714286 17.7395833333333  41.7857142857143 14.7265625  41.7857142857143 11.8828125  C 41.7857142857143 10.51171875  41.6057477678571 9.30143229166666  41.2458147321429 8.251953125  C 40.8858816964286 7.20247395833333  40.4255022321429 6.36881510416666  39.8646763392857 5.7509765625  C 39.3038504464286 5.13313802083333  38.6216517857143 4.62955729166667  37.8180803571429 4.240234375  C 37.0145089285714 3.85091145833333  36.2276785714286 3.58854166666666  35.4575892857143 3.453125  C 34.6875 3.31770833333333  33.8671875 3.25  32.9966517857143 3.25  C 32.1261160714286 3.25  31.1886160714286 3.4658203125  30.1841517857143 3.8974609375  C 29.1796875 4.3291015625  28.2547433035714 4.87076822916666  27.4093191964286 5.5224609375  C 26.5638950892857 6.17415364583333  25.83984375 6.78352864583333  25.2371651785714 7.3505859375  C 24.6344866071429 7.91764322916666  24.1322544642857 8.43815104166667  23.73046875 8.912109375  C 23.4291294642857 9.28450520833333  23.0189732142857 9.470703125  22.5 9.470703125  C 21.9810267857143 9.470703125  21.5708705357143 9.28450520833333  21.26953125 8.912109375  C 20.8677455357143 8.43815104166667  20.3655133928571 7.91764322916666  19.7628348214286 7.3505859375  C 19.16015625 6.78352864583333  18.4361049107143 6.17415364583333  17.5906808035714 5.5224609375  C 16.7452566964286 4.87076822916666  15.8203125 4.3291015625  14.8158482142857 3.8974609375  C 13.8113839285714 3.4658203125  12.8738839285714 3.25  12.0033482142857 3.25  C 11.1328125 3.25  10.3125 3.31770833333333  9.54241071428571 3.453125  C 8.77232142857143 3.58854166666666  7.98549107142857 3.85091145833333  7.18191964285714 4.240234375  C 6.37834821428571 4.62955729166667  5.69614955357143 5.13313802083333  5.13532366071429 5.7509765625  C 4.57449776785714 6.36881510416666  4.11411830357143 7.20247395833333  3.75418526785714 8.251953125  C 3.39425223214286 9.30143229166666  3.21428571428571 10.51171875  3.21428571428571 11.8828125  C 3.21428571428571 14.7265625  4.77957589285714 17.7311197916667  7.91015625 20.896484375  L 22.5 35.115234375  L 37.0647321428571 20.921875  Z M 41.8108258928571 3.1484375  C 43.9369419642857 5.24739583333333  45 8.15885416666666  45 11.8828125  C 45 15.6236979166667  43.0831473214286 19.4322916666667  39.2494419642857 23.30859375  L 23.6049107142857 38.54296875  C 23.3035714285714 38.84765625  22.9352678571429 39  22.5 39  C 22.0647321428571 39  21.6964285714286 38.84765625  21.3950892857143 38.54296875  L 5.72544642857143 23.2578125  C 5.55803571428571 23.1223958333333  5.32784598214286 22.90234375  5.03487723214286 22.59765625  C 4.74190848214286 22.29296875  4.27734375 21.7386067708333  3.64118303571429 20.9345703125  C 3.00502232142857 20.1305338541667  2.43582589285714 19.3053385416667  1.93359375 18.458984375  C 1.43136160714286 17.6126302083333  0.983537946428572 16.5885416666667  0.590122767857143 15.38671875  C 0.196707589285714 14.1848958333333  0 13.0169270833333  0 11.8828125  C 0 8.15885416666666  1.06305803571429 5.24739583333333  3.18917410714286 3.1484375  C 5.31529017857143 1.04947916666667  8.25334821428571 0  12.0033482142857 0  C 13.0412946428571 0  14.1001674107143 0.181966145833331  15.1799665178571 0.545898437500001  C 16.259765625 0.909830729166663  17.2642299107143 1.40071614583333  18.193359375 2.0185546875  C 19.1224888392857 2.63639322916666  19.921875 3.21614583333333  20.5915178571429 3.7578125  C 21.2611607142857 4.29947916666666  21.8973214285714 4.875  22.5 5.484375  C 23.1026785714286 4.875  23.7388392857143 4.29947916666666  24.4084821428571 3.7578125  C 25.078125 3.21614583333333  25.8775111607143 2.63639322916666  26.806640625 2.0185546875  C 27.7357700892857 1.40071614583333  28.740234375 0.909830729166663  29.8200334821429 0.545898437500001  C 30.8998325892857 0.181966145833331  31.9587053571429 0  32.9966517857143 0  C 36.7466517857143 0  39.6847098214286 1.04947916666667  41.8108258928571 3.1484375  Z " fill-rule="nonzero" fill="#ffffff" stroke="none" fill-opacity="0.996078431372549" transform="matrix(1 0 0 1 756 1036 )" />
    <path d="M 37.0647321428571 20.921875  C 40.2120535714286 17.7395833333333  41.7857142857143 14.7265625  41.7857142857143 11.8828125  C 41.7857142857143 10.51171875  41.6057477678571 9.30143229166666  41.2458147321429 8.251953125  C 40.8858816964286 7.20247395833333  40.4255022321429 6.36881510416666  39.8646763392857 5.7509765625  C 39.3038504464286 5.13313802083333  38.6216517857143 4.62955729166667  37.8180803571429 4.240234375  C 37.0145089285714 3.85091145833333  36.2276785714286 3.58854166666666  35.4575892857143 3.453125  C 34.6875 3.31770833333333  33.8671875 3.25  32.9966517857143 3.25  C 32.1261160714286 3.25  31.1886160714286 3.4658203125  30.1841517857143 3.8974609375  C 29.1796875 4.3291015625  28.2547433035714 4.87076822916666  27.4093191964286 5.5224609375  C 26.5638950892857 6.17415364583333  25.83984375 6.78352864583333  25.2371651785714 7.3505859375  C 24.6344866071429 7.91764322916666  24.1322544642857 8.43815104166667  23.73046875 8.912109375  C 23.4291294642857 9.28450520833333  23.0189732142857 9.470703125  22.5 9.470703125  C 21.9810267857143 9.470703125  21.5708705357143 9.28450520833333  21.26953125 8.912109375  C 20.8677455357143 8.43815104166667  20.3655133928571 7.91764322916666  19.7628348214286 7.3505859375  C 19.16015625 6.78352864583333  18.4361049107143 6.17415364583333  17.5906808035714 5.5224609375  C 16.7452566964286 4.87076822916666  15.8203125 4.3291015625  14.8158482142857 3.8974609375  C 13.8113839285714 3.4658203125  12.8738839285714 3.25  12.0033482142857 3.25  C 11.1328125 3.25  10.3125 3.31770833333333  9.54241071428571 3.453125  C 8.77232142857143 3.58854166666666  7.98549107142857 3.85091145833333  7.18191964285714 4.240234375  C 6.37834821428571 4.62955729166667  5.69614955357143 5.13313802083333  5.13532366071429 5.7509765625  C 4.57449776785714 6.36881510416666  4.11411830357143 7.20247395833333  3.75418526785714 8.251953125  C 3.39425223214286 9.30143229166666  3.21428571428571 10.51171875  3.21428571428571 11.8828125  C 3.21428571428571 14.7265625  4.77957589285714 17.7311197916667  7.91015625 20.896484375  L 22.5 35.115234375  L 37.0647321428571 20.921875  Z " stroke-width="2" stroke="#000000" fill="none" transform="matrix(1 0 0 1 756 1036 )" mask="url(#clip7)" />
    <path d="M 41.8108258928571 3.1484375  C 43.9369419642857 5.24739583333333  45 8.15885416666666  45 11.8828125  C 45 15.6236979166667  43.0831473214286 19.4322916666667  39.2494419642857 23.30859375  L 23.6049107142857 38.54296875  C 23.3035714285714 38.84765625  22.9352678571429 39  22.5 39  C 22.0647321428571 39  21.6964285714286 38.84765625  21.3950892857143 38.54296875  L 5.72544642857143 23.2578125  C 5.55803571428571 23.1223958333333  5.32784598214286 22.90234375  5.03487723214286 22.59765625  C 4.74190848214286 22.29296875  4.27734375 21.7386067708333  3.64118303571429 20.9345703125  C 3.00502232142857 20.1305338541667  2.43582589285714 19.3053385416667  1.93359375 18.458984375  C 1.43136160714286 17.6126302083333  0.983537946428572 16.5885416666667  0.590122767857143 15.38671875  C 0.196707589285714 14.1848958333333  0 13.0169270833333  0 11.8828125  C 0 8.15885416666666  1.06305803571429 5.24739583333333  3.18917410714286 3.1484375  C 5.31529017857143 1.04947916666667  8.25334821428571 0  12.0033482142857 0  C 13.0412946428571 0  14.1001674107143 0.181966145833331  15.1799665178571 0.545898437500001  C 16.259765625 0.909830729166663  17.2642299107143 1.40071614583333  18.193359375 2.0185546875  C 19.1224888392857 2.63639322916666  19.921875 3.21614583333333  20.5915178571429 3.7578125  C 21.2611607142857 4.29947916666666  21.8973214285714 4.875  22.5 5.484375  C 23.1026785714286 4.875  23.7388392857143 4.29947916666666  24.4084821428571 3.7578125  C 25.078125 3.21614583333333  25.8775111607143 2.63639322916666  26.806640625 2.0185546875  C 27.7357700892857 1.40071614583333  28.740234375 0.909830729166663  29.8200334821429 0.545898437500001  C 30.8998325892857 0.181966145833331  31.9587053571429 0  32.9966517857143 0  C 36.7466517857143 0  39.6847098214286 1.04947916666667  41.8108258928571 3.1484375  Z " stroke-width="2" stroke="#000000" fill="none" transform="matrix(1 0 0 1 756 1036 )" mask="url(#clip7)" />
  </g>
</svg>