<?xml version="1.0" encoding="utf-8"?>
<svg version="1.1" xmlns:xlink="http://www.w3.org/1999/xlink" width="42px" height="28px" xmlns="http://www.w3.org/2000/svg">
  <g transform="matrix(1 0 0 1 -1044 -222 )">
    <path d="M 31.18359375 21.9357638888889  C 34.31640625 19.9670138888889  36.921875 17.3217592592593  39 14  C 36.625 10.1759259259259  33.6484375 7.31597222222222  30.0703125 5.42013888888889  C 31.0234375 7.10532407407407  31.5 8.92824074074074  31.5 10.8888888888889  C 31.5 13.8865740740741  30.47265625 16.4508101851852  28.41796875 18.5815972222222  C 26.36328125 20.7123842592593  23.890625 21.7777777777778  21 21.7777777777778  C 18.109375 21.7777777777778  15.63671875 20.7123842592593  13.58203125 18.5815972222222  C 11.52734375 16.4508101851852  10.5 13.8865740740741  10.5 10.8888888888889  C 10.5 8.92824074074074  10.9765625 7.10532407407407  11.9296875 5.42013888888889  C 8.3515625 7.31597222222222  5.375 10.1759259259259  3 14  C 5.078125 17.3217592592593  7.68359375 19.9670138888889  10.81640625 21.9357638888889  C 13.94921875 23.9045138888889  17.34375 24.8888888888889  21 24.8888888888889  C 24.65625 24.8888888888889  28.05078125 23.9045138888889  31.18359375 21.9357638888889  Z M 21.796875 5.49305555555556  C 22.015625 5.2662037037037  22.125 4.99074074074074  22.125 4.66666666666667  C 22.125 4.34259259259259  22.015625 4.06712962962963  21.796875 3.84027777777778  C 21.578125 3.61342592592592  21.3125 3.5  21 3.5  C 19.046875 3.5  17.37109375 4.22511574074074  15.97265625 5.67534722222222  C 14.57421875 7.1255787037037  13.875 8.86342592592593  13.875 10.8888888888889  C 13.875 11.212962962963  13.984375 11.4884259259259  14.203125 11.7152777777778  C 14.421875 11.9421296296296  14.6875 12.0555555555556  15 12.0555555555556  C 15.3125 12.0555555555556  15.578125 11.9421296296296  15.796875 11.7152777777778  C 16.015625 11.4884259259259  16.125 11.212962962963  16.125 10.8888888888889  C 16.125 9.49537037037037  16.6015625 8.30439814814815  17.5546875 7.31597222222222  C 18.5078125 6.3275462962963  19.65625 5.83333333333333  21 5.83333333333333  C 21.3125 5.83333333333333  21.578125 5.7199074074074  21.796875 5.49305555555556  Z M 41.53125 12.3229166666667  C 41.84375 12.8900462962963  42 13.4490740740741  42 14  C 42 14.5509259259259  41.84375 15.1099537037037  41.53125 15.6770833333333  C 39.34375 19.4039351851852  36.40234375 22.3894675925926  32.70703125 24.6336805555556  C 29.01171875 26.8778935185185  25.109375 28  21 28  C 16.890625 28  12.98828125 26.8738425925926  9.29296875 24.6215277777778  C 5.59765625 22.369212962963  2.65625 19.3877314814815  0.46875 15.6770833333333  C 0.15625 15.1099537037037  0 14.5509259259259  0 14  C 0 13.4490740740741  0.15625 12.8900462962963  0.46875 12.3229166666667  C 2.65625 8.61226851851852  5.59765625 5.63078703703704  9.29296875 3.37847222222222  C 12.98828125 1.12615740740741  16.890625 0  21 0  C 25.109375 0  29.01171875 1.12615740740741  32.70703125 3.37847222222222  C 36.40234375 5.63078703703704  39.34375 8.61226851851852  41.53125 12.3229166666667  Z " fill-rule="nonzero" fill="#7f7f7f" stroke="none" transform="matrix(1 0 0 1 1044 222 )" />
  </g>
</svg>