<?xml version="1.0" encoding="utf-8"?>
<svg version="1.1" xmlns:xlink="http://www.w3.org/1999/xlink" width="62px" height="77px" xmlns="http://www.w3.org/2000/svg">
  <g transform="matrix(1 0 0 1 -361 -295 )">
    <path d="M 361 295  L 423 295  L 423 372  L 361 372  L 361 295  " fill-rule="nonzero" fill="#cccccc" stroke="none" />
    <path d="M 365 299  L 419 299  L 419 368  L 365 368  L 365 299  " fill-rule="nonzero" fill="#ffffff" stroke="none" />
    <path d="M 397.89 315.85  C 395.286 315.85  393.24 313.804  393.24 311.2  C 393.24 308.596  395.286 306.55  397.89 306.55  C 400.494 306.55  402.54 308.596  402.54 311.2  C 402.54 313.804  400.494 315.85  397.89 315.85  " fill-rule="nonzero" fill="#cccccc" stroke="none" />
    <path d="M 367 367  L 367 330.7  L 379.75 314.2  L 397.6 327.4  L 407.8 324.1  L 418 327.4  L 418 367  L 367 367  " fill-rule="nonzero" fill="#169bd5" stroke="none" />
  </g>
</svg>