<?xml version="1.0" encoding="utf-8"?>
<svg version="1.1" xmlns:xlink="http://www.w3.org/1999/xlink" width="26px" height="23px" xmlns="http://www.w3.org/2000/svg">
  <defs>
    <mask fill="white" id="clip147">
      <path d="M 21.4151785714286 12.3385416666667  C 23.233630952381 10.4618055555556  24.1428571428571 8.68489583333333  24.1428571428571 7.0078125  C 24.1428571428571 6.19921875  24.0388764880952 5.48546006944444  23.8309151785714 4.86653645833333  C 23.6229538690476 4.24761284722222  23.3569568452381 3.75596788194444  23.0329241071429 3.3916015625  C 22.7088913690476 3.02723524305555  22.3147321428571 2.73025173611111  21.8504464285714 2.50065104166667  C 21.3861607142857 2.27105034722222  20.9315476190476 2.11631944444444  20.4866071428571 2.03645833333333  C 20.0416666666667 1.95659722222222  19.5677083333333 1.91666666666667  19.0647321428571 1.91666666666667  C 18.561755952381 1.91666666666667  18.0200892857143 2.0439453125  17.4397321428571 2.29850260416667  C 16.859375 2.55305989583333  16.324962797619 2.87250434027778  15.8364955357143 3.2568359375  C 15.3480282738095 3.64116753472222  14.9296875 4.00054253472222  14.5814732142857 4.3349609375  C 14.2332589285714 4.66937934027778  13.9430803571429 4.97634548611111  13.7109375 5.255859375  C 13.5368303571429 5.47547743055555  13.2998511904762 5.58528645833333  13 5.58528645833333  C 12.7001488095238 5.58528645833333  12.4631696428571 5.47547743055555  12.2890625 5.255859375  C 12.0569196428571 4.97634548611111  11.7667410714286 4.66937934027778  11.4185267857143 4.3349609375  C 11.0703125 4.00054253472222  10.6519717261905 3.64116753472222  10.1635044642857 3.2568359375  C 9.67503720238095 2.87250434027778  9.140625 2.55305989583333  8.56026785714286 2.29850260416667  C 7.97991071428571 2.0439453125  7.43824404761905 1.91666666666667  6.93526785714286 1.91666666666667  C 6.43229166666667 1.91666666666667  5.95833333333333 1.95659722222222  5.51339285714286 2.03645833333333  C 5.06845238095238 2.11631944444444  4.61383928571429 2.27105034722222  4.14955357142857 2.50065104166667  C 3.68526785714286 2.73025173611111  3.29110863095238 3.02723524305555  2.96707589285714 3.3916015625  C 2.64304315476191 3.75596788194444  2.37704613095238 4.24761284722222  2.16908482142857 4.86653645833333  C 1.96112351190476 5.48546006944444  1.85714285714286 6.19921875  1.85714285714286 7.0078125  C 1.85714285714286 8.68489583333333  2.76153273809524 10.4568142361111  4.5703125 12.3235677083333  L 13 20.708984375  L 21.4151785714286 12.3385416666667  Z M 24.1573660714286 1.85677083333333  C 25.3857886904762 3.09461805555555  26 4.81163194444444  26 7.0078125  C 26 9.21397569444444  24.8924851190476 11.4600694444444  22.6774553571429 13.74609375  L 13.6383928571429 22.73046875  C 13.4642857142857 22.91015625  13.2514880952381 23  13 23  C 12.7485119047619 23  12.5357142857143 22.91015625  12.3616071428571 22.73046875  L 3.30803571428571 13.7161458333333  C 3.21130952380952 13.6362847222222  3.07831101190476 13.5065104166667  2.90904017857143 13.3268229166667  C 2.7397693452381 13.1471354166667  2.47135416666667 12.8202039930556  2.10379464285714 12.3460286458333  C 1.73623511904762 11.8718532986111  1.40736607142857 11.3851996527778  1.1171875 10.8860677083333  C 0.827008928571428 10.3869357638889  0.568266369047619 9.78298611111111  0.340959821428571 9.07421875  C 0.113653273809524 8.36545138888889  0 7.67664930555555  0 7.0078125  C 0 4.81163194444444  0.614211309523809 3.09461805555555  1.84263392857143 1.85677083333333  C 3.07105654761905 0.618923611111111  4.76860119047619 0  6.93526785714286 0  C 7.53497023809524 0  8.14676339285714 0.107313368055554  8.77064732142857 0.321940104166668  C 9.39453125 0.536566840277776  9.97488839285714 0.826063368055554  10.51171875 1.1904296875  C 11.0485491071429 1.55479600694444  11.5104166666667 1.89670138888889  11.8973214285714 2.21614583333333  C 12.2842261904762 2.53559027777778  12.6517857142857 2.875  13 3.234375  C 13.3482142857143 2.875  13.7157738095238 2.53559027777778  14.1026785714286 2.21614583333333  C 14.4895833333333 1.89670138888889  14.9514508928571 1.55479600694444  15.48828125 1.1904296875  C 16.0251116071429 0.826063368055554  16.60546875 0.536566840277776  17.2293526785714 0.321940104166668  C 17.8532366071429 0.107313368055554  18.4650297619048 0  19.0647321428571 0  C 21.2313988095238 0  22.928943452381 0.618923611111111  24.1573660714286 1.85677083333333  Z " fill-rule="evenodd" />
    </mask>
  </defs>
  <g transform="matrix(1 0 0 1 -726 -580 )">
    <path d="M 21.4151785714286 12.3385416666667  C 23.233630952381 10.4618055555556  24.1428571428571 8.68489583333333  24.1428571428571 7.0078125  C 24.1428571428571 6.19921875  24.0388764880952 5.48546006944444  23.8309151785714 4.86653645833333  C 23.6229538690476 4.24761284722222  23.3569568452381 3.75596788194444  23.0329241071429 3.3916015625  C 22.7088913690476 3.02723524305555  22.3147321428571 2.73025173611111  21.8504464285714 2.50065104166667  C 21.3861607142857 2.27105034722222  20.9315476190476 2.11631944444444  20.4866071428571 2.03645833333333  C 20.0416666666667 1.95659722222222  19.5677083333333 1.91666666666667  19.0647321428571 1.91666666666667  C 18.561755952381 1.91666666666667  18.0200892857143 2.0439453125  17.4397321428571 2.29850260416667  C 16.859375 2.55305989583333  16.324962797619 2.87250434027778  15.8364955357143 3.2568359375  C 15.3480282738095 3.64116753472222  14.9296875 4.00054253472222  14.5814732142857 4.3349609375  C 14.2332589285714 4.66937934027778  13.9430803571429 4.97634548611111  13.7109375 5.255859375  C 13.5368303571429 5.47547743055555  13.2998511904762 5.58528645833333  13 5.58528645833333  C 12.7001488095238 5.58528645833333  12.4631696428571 5.47547743055555  12.2890625 5.255859375  C 12.0569196428571 4.97634548611111  11.7667410714286 4.66937934027778  11.4185267857143 4.3349609375  C 11.0703125 4.00054253472222  10.6519717261905 3.64116753472222  10.1635044642857 3.2568359375  C 9.67503720238095 2.87250434027778  9.140625 2.55305989583333  8.56026785714286 2.29850260416667  C 7.97991071428571 2.0439453125  7.43824404761905 1.91666666666667  6.93526785714286 1.91666666666667  C 6.43229166666667 1.91666666666667  5.95833333333333 1.95659722222222  5.51339285714286 2.03645833333333  C 5.06845238095238 2.11631944444444  4.61383928571429 2.27105034722222  4.14955357142857 2.50065104166667  C 3.68526785714286 2.73025173611111  3.29110863095238 3.02723524305555  2.96707589285714 3.3916015625  C 2.64304315476191 3.75596788194444  2.37704613095238 4.24761284722222  2.16908482142857 4.86653645833333  C 1.96112351190476 5.48546006944444  1.85714285714286 6.19921875  1.85714285714286 7.0078125  C 1.85714285714286 8.68489583333333  2.76153273809524 10.4568142361111  4.5703125 12.3235677083333  L 13 20.708984375  L 21.4151785714286 12.3385416666667  Z M 24.1573660714286 1.85677083333333  C 25.3857886904762 3.09461805555555  26 4.81163194444444  26 7.0078125  C 26 9.21397569444444  24.8924851190476 11.4600694444444  22.6774553571429 13.74609375  L 13.6383928571429 22.73046875  C 13.4642857142857 22.91015625  13.2514880952381 23  13 23  C 12.7485119047619 23  12.5357142857143 22.91015625  12.3616071428571 22.73046875  L 3.30803571428571 13.7161458333333  C 3.21130952380952 13.6362847222222  3.07831101190476 13.5065104166667  2.90904017857143 13.3268229166667  C 2.7397693452381 13.1471354166667  2.47135416666667 12.8202039930556  2.10379464285714 12.3460286458333  C 1.73623511904762 11.8718532986111  1.40736607142857 11.3851996527778  1.1171875 10.8860677083333  C 0.827008928571428 10.3869357638889  0.568266369047619 9.78298611111111  0.340959821428571 9.07421875  C 0.113653273809524 8.36545138888889  0 7.67664930555555  0 7.0078125  C 0 4.81163194444444  0.614211309523809 3.09461805555555  1.84263392857143 1.85677083333333  C 3.07105654761905 0.618923611111111  4.76860119047619 0  6.93526785714286 0  C 7.53497023809524 0  8.14676339285714 0.107313368055554  8.77064732142857 0.321940104166668  C 9.39453125 0.536566840277776  9.97488839285714 0.826063368055554  10.51171875 1.1904296875  C 11.0485491071429 1.55479600694444  11.5104166666667 1.89670138888889  11.8973214285714 2.21614583333333  C 12.2842261904762 2.53559027777778  12.6517857142857 2.875  13 3.234375  C 13.3482142857143 2.875  13.7157738095238 2.53559027777778  14.1026785714286 2.21614583333333  C 14.4895833333333 1.89670138888889  14.9514508928571 1.55479600694444  15.48828125 1.1904296875  C 16.0251116071429 0.826063368055554  16.60546875 0.536566840277776  17.2293526785714 0.321940104166668  C 17.8532366071429 0.107313368055554  18.4650297619048 0  19.0647321428571 0  C 21.2313988095238 0  22.928943452381 0.618923611111111  24.1573660714286 1.85677083333333  Z " fill-rule="nonzero" fill="#ffffff" stroke="none" fill-opacity="0.996078431372549" transform="matrix(1 0 0 1 726 580 )" />
    <path d="M 21.4151785714286 12.3385416666667  C 23.233630952381 10.4618055555556  24.1428571428571 8.68489583333333  24.1428571428571 7.0078125  C 24.1428571428571 6.19921875  24.0388764880952 5.48546006944444  23.8309151785714 4.86653645833333  C 23.6229538690476 4.24761284722222  23.3569568452381 3.75596788194444  23.0329241071429 3.3916015625  C 22.7088913690476 3.02723524305555  22.3147321428571 2.73025173611111  21.8504464285714 2.50065104166667  C 21.3861607142857 2.27105034722222  20.9315476190476 2.11631944444444  20.4866071428571 2.03645833333333  C 20.0416666666667 1.95659722222222  19.5677083333333 1.91666666666667  19.0647321428571 1.91666666666667  C 18.561755952381 1.91666666666667  18.0200892857143 2.0439453125  17.4397321428571 2.29850260416667  C 16.859375 2.55305989583333  16.324962797619 2.87250434027778  15.8364955357143 3.2568359375  C 15.3480282738095 3.64116753472222  14.9296875 4.00054253472222  14.5814732142857 4.3349609375  C 14.2332589285714 4.66937934027778  13.9430803571429 4.97634548611111  13.7109375 5.255859375  C 13.5368303571429 5.47547743055555  13.2998511904762 5.58528645833333  13 5.58528645833333  C 12.7001488095238 5.58528645833333  12.4631696428571 5.47547743055555  12.2890625 5.255859375  C 12.0569196428571 4.97634548611111  11.7667410714286 4.66937934027778  11.4185267857143 4.3349609375  C 11.0703125 4.00054253472222  10.6519717261905 3.64116753472222  10.1635044642857 3.2568359375  C 9.67503720238095 2.87250434027778  9.140625 2.55305989583333  8.56026785714286 2.29850260416667  C 7.97991071428571 2.0439453125  7.43824404761905 1.91666666666667  6.93526785714286 1.91666666666667  C 6.43229166666667 1.91666666666667  5.95833333333333 1.95659722222222  5.51339285714286 2.03645833333333  C 5.06845238095238 2.11631944444444  4.61383928571429 2.27105034722222  4.14955357142857 2.50065104166667  C 3.68526785714286 2.73025173611111  3.29110863095238 3.02723524305555  2.96707589285714 3.3916015625  C 2.64304315476191 3.75596788194444  2.37704613095238 4.24761284722222  2.16908482142857 4.86653645833333  C 1.96112351190476 5.48546006944444  1.85714285714286 6.19921875  1.85714285714286 7.0078125  C 1.85714285714286 8.68489583333333  2.76153273809524 10.4568142361111  4.5703125 12.3235677083333  L 13 20.708984375  L 21.4151785714286 12.3385416666667  Z " stroke-width="2" stroke="#000000" fill="none" transform="matrix(1 0 0 1 726 580 )" mask="url(#clip147)" />
    <path d="M 24.1573660714286 1.85677083333333  C 25.3857886904762 3.09461805555555  26 4.81163194444444  26 7.0078125  C 26 9.21397569444444  24.8924851190476 11.4600694444444  22.6774553571429 13.74609375  L 13.6383928571429 22.73046875  C 13.4642857142857 22.91015625  13.2514880952381 23  13 23  C 12.7485119047619 23  12.5357142857143 22.91015625  12.3616071428571 22.73046875  L 3.30803571428571 13.7161458333333  C 3.21130952380952 13.6362847222222  3.07831101190476 13.5065104166667  2.90904017857143 13.3268229166667  C 2.7397693452381 13.1471354166667  2.47135416666667 12.8202039930556  2.10379464285714 12.3460286458333  C 1.73623511904762 11.8718532986111  1.40736607142857 11.3851996527778  1.1171875 10.8860677083333  C 0.827008928571428 10.3869357638889  0.568266369047619 9.78298611111111  0.340959821428571 9.07421875  C 0.113653273809524 8.36545138888889  0 7.67664930555555  0 7.0078125  C 0 4.81163194444444  0.614211309523809 3.09461805555555  1.84263392857143 1.85677083333333  C 3.07105654761905 0.618923611111111  4.76860119047619 0  6.93526785714286 0  C 7.53497023809524 0  8.14676339285714 0.107313368055554  8.77064732142857 0.321940104166668  C 9.39453125 0.536566840277776  9.97488839285714 0.826063368055554  10.51171875 1.1904296875  C 11.0485491071429 1.55479600694444  11.5104166666667 1.89670138888889  11.8973214285714 2.21614583333333  C 12.2842261904762 2.53559027777778  12.6517857142857 2.875  13 3.234375  C 13.3482142857143 2.875  13.7157738095238 2.53559027777778  14.1026785714286 2.21614583333333  C 14.4895833333333 1.89670138888889  14.9514508928571 1.55479600694444  15.48828125 1.1904296875  C 16.0251116071429 0.826063368055554  16.60546875 0.536566840277776  17.2293526785714 0.321940104166668  C 17.8532366071429 0.107313368055554  18.4650297619048 0  19.0647321428571 0  C 21.2313988095238 0  22.928943452381 0.618923611111111  24.1573660714286 1.85677083333333  Z " stroke-width="2" stroke="#000000" fill="none" transform="matrix(1 0 0 1 726 580 )" mask="url(#clip147)" />
  </g>
</svg>