<?xml version="1.0" encoding="utf-8"?>
<svg version="1.1" xmlns:xlink="http://www.w3.org/1999/xlink" width="106px" height="78px" xmlns="http://www.w3.org/2000/svg">
  <g transform="matrix(1 0 0 1 -864 -140 )">
    <path d="M 864 140  L 970 140  L 970 218  L 864 218  L 864 140  " fill-rule="nonzero" fill="#cccccc" stroke="none" />
    <path d="M 869 145  L 965 145  L 965 213  L 869 213  L 869 145  " fill-rule="nonzero" fill="#ffffff" stroke="none" />
    <path d="M 924.97 163.4  C 921.694 163.4  919.12 160.826  919.12 157.55  C 919.12 154.274  921.694 151.7  924.97 151.7  C 928.246 151.7  930.82 154.274  930.82 157.55  C 930.82 160.826  928.246 163.4  924.97 163.4  " fill-rule="nonzero" fill="#cccccc" stroke="none" />
    <path d="M 871 211  L 871 175.8  L 894 159.8  L 926.2 182.743396226415  L 944.6 169.4  L 963 182.743396226415  L 963 211  L 871 211  " fill-rule="nonzero" fill="#169bd5" stroke="none" />
  </g>
</svg>