<?xml version="1.0" encoding="utf-8"?>
<svg version="1.1" xmlns:xlink="http://www.w3.org/1999/xlink" width="22px" height="19px" xmlns="http://www.w3.org/2000/svg">
  <g transform="matrix(1 0 0 1 -328 -1369 )">
    <path d="M 18.1205357142857 10.1927083333333  C 19.6592261904762 8.64236111111111  20.4285714285714 7.17447916666667  20.4285714285714 5.7890625  C 20.4285714285714 5.12109375  20.340587797619 4.53146701388889  20.1646205357143 4.02018229166667  C 19.9886532738095 3.50889756944444  19.7635788690476 3.10275607638889  19.4893973214286 2.8017578125  C 19.2152157738095 2.50075954861111  18.8816964285714 2.25542534722222  18.4888392857143 2.06575520833333  C 18.0959821428571 1.87608506944444  17.7113095238095 1.74826388888889  17.3348214285714 1.68229166666667  C 16.9583333333333 1.61631944444444  16.5572916666667 1.58333333333333  16.1316964285714 1.58333333333333  C 15.7061011904762 1.58333333333333  15.2477678571429 1.6884765625  14.7566964285714 1.89876302083333  C 14.265625 2.10904947916667  13.8134300595238 2.37293836805555  13.4001116071429 2.6904296875  C 12.9867931547619 3.00792100694444  12.6328125 3.30479600694444  12.3381696428571 3.5810546875  C 12.0435267857143 3.85731336805555  11.7979910714286 4.11089409722222  11.6015625 4.341796875  C 11.4542410714286 4.52322048611111  11.2537202380952 4.61393229166667  11 4.61393229166667  C 10.7462797619048 4.61393229166667  10.5457589285714 4.52322048611111  10.3984375 4.341796875  C 10.2020089285714 4.11089409722222  9.95647321428572 3.85731336805555  9.66183035714286 3.5810546875  C 9.3671875 3.30479600694444  9.0132068452381 3.00792100694444  8.59988839285714 2.6904296875  C 8.18656994047619 2.37293836805555  7.734375 2.10904947916667  7.24330357142857 1.89876302083333  C 6.75223214285714 1.6884765625  6.29389880952381 1.58333333333333  5.86830357142857 1.58333333333333  C 5.44270833333333 1.58333333333333  5.04166666666667 1.61631944444444  4.66517857142857 1.68229166666667  C 4.28869047619048 1.74826388888889  3.90401785714286 1.87608506944444  3.51116071428571 2.06575520833333  C 3.11830357142857 2.25542534722222  2.78478422619048 2.50075954861111  2.51060267857143 2.8017578125  C 2.23642113095238 3.10275607638889  2.01134672619048 3.50889756944444  1.83537946428571 4.02018229166667  C 1.65941220238095 4.53146701388889  1.57142857142857 5.12109375  1.57142857142857 5.7890625  C 1.57142857142857 7.17447916666667  2.33668154761905 8.63823784722222  3.8671875 10.1803385416667  L 11 17.107421875  L 18.1205357142857 10.1927083333333  Z M 20.4408482142857 1.53385416666667  C 21.4802827380952 2.55642361111111  22 3.97482638888889  22 5.7890625  C 22 7.61154513888889  21.0628720238095 9.46701388888889  19.1886160714286 11.35546875  L 11.5401785714286 18.77734375  C 11.3928571428571 18.92578125  11.2127976190476 19  11 19  C 10.7872023809524 19  10.6071428571429 18.92578125  10.4598214285714 18.77734375  L 2.79910714285714 11.3307291666667  C 2.71726190476191 11.2647569444444  2.60472470238095 11.1575520833333  2.46149553571429 11.0091145833333  C 2.31826636904762 10.8606770833333  2.09114583333333 10.5906032986111  1.78013392857143 10.1988932291667  C 1.46912202380952 9.80718315972222  1.19084821428571 9.40516493055555  0.9453125 8.99283854166667  C 0.699776785714286 8.58051215277778  0.480840773809524 8.08159722222222  0.288504464285714 7.49609375  C 0.0961681547619048 6.91059027777778  0 6.34157986111111  0 5.7890625  C 0 3.97482638888889  0.519717261904762 2.55642361111111  1.55915178571429 1.53385416666667  C 2.59858630952381 0.511284722222222  4.03497023809524 0  5.86830357142857 0  C 6.37574404761905 0  6.89341517857143 0.0886501736111099  7.42131696428571 0.265950520833334  C 7.94921875 0.443250868055554  8.44029017857143 0.68240017361111  8.89453125 0.9833984375  C 9.34877232142857 1.28439670138889  9.73958333333334 1.56684027777778  10.0669642857143 1.83072916666667  C 10.3943452380952 2.09461805555555  10.7053571428571 2.375  11 2.671875  C 11.2946428571429 2.375  11.6056547619048 2.09461805555555  11.9330357142857 1.83072916666667  C 12.2604166666667 1.56684027777778  12.6512276785714 1.28439670138889  13.10546875 0.9833984375  C 13.5597098214286 0.68240017361111  14.05078125 0.443250868055554  14.5786830357143 0.265950520833334  C 15.1065848214286 0.0886501736111099  15.624255952381 0  16.1316964285714 0  C 17.9650297619048 0  19.4014136904762 0.511284722222222  20.4408482142857 1.53385416666667  Z " fill-rule="nonzero" fill="#000000" stroke="none" transform="matrix(1 0 0 1 328 1369 )" />
  </g>
</svg>