<?xml version="1.0" encoding="utf-8"?>
<svg version="1.1" xmlns:xlink="http://www.w3.org/1999/xlink" width="360px" height="112px" xmlns="http://www.w3.org/2000/svg">
  <g transform="matrix(1 0 0 1 -213 -138 )">
    <path d="M 213 138  L 573 138  L 573 250  L 213 250  L 213 138  " fill-rule="nonzero" fill="#cccccc" stroke="none" />
    <path d="M 221 146  L 565 146  L 565 242  L 221 242  L 221 146  " fill-rule="nonzero" fill="#ffffff" stroke="none" />
    <path d="M 408.6 171.6  C 403.896 171.6  400.2 167.904  400.2 163.2  C 400.2 158.496  403.896 154.8  408.6 154.8  C 413.304 154.8  417 158.496  417 163.2  C 417 167.904  413.304 171.6  408.6 171.6  " fill-rule="nonzero" fill="#cccccc" stroke="none" />
    <path d="M 224 239  L 224 189.5  L 308.5 167  L 426.8 222.2  L 494.4 180.5  L 562 222.2  L 562 239  L 224 239  " fill-rule="nonzero" fill="#169bd5" stroke="none" />
  </g>
</svg>