<?xml version="1.0" encoding="utf-8"?>
<svg version="1.1" xmlns:xlink="http://www.w3.org/1999/xlink" width="103px" height="71px" xmlns="http://www.w3.org/2000/svg">
  <g transform="matrix(1 0 0 1 -303 -229 )">
    <path d="M 304 233  A 3 3 0 0 1 307 230 L 402 230  A 3 3 0 0 1 405 233 L 405 296  A 3 3 0 0 1 402 299 L 307 299  A 3 3 0 0 1 304 296 L 304 233  Z " fill-rule="nonzero" fill="#ffffff" stroke="none" />
    <path d="M 303.5 233  A 3.5 3.5 0 0 1 307 229.5 L 402 229.5  A 3.5 3.5 0 0 1 405.5 233 L 405.5 296  A 3.5 3.5 0 0 1 402 299.5 L 307 299.5  A 3.5 3.5 0 0 1 303.5 296 L 303.5 233  Z " stroke-width="1" stroke-dasharray="3,1" stroke="#40a9ff" fill="none" stroke-dashoffset="0.5" />
  </g>
</svg>