<?xml version="1.0" encoding="utf-8"?>
<svg version="1.1" xmlns:xlink="http://www.w3.org/1999/xlink" width="21px" height="18px" xmlns="http://www.w3.org/2000/svg">
  <defs>
    <mask fill="white" id="clip6">
      <path d="M 17.296875 9.65625  C 18.765625 8.1875  19.5 6.796875  19.5 5.484375  C 19.5 4.8515625  19.416015625 4.29296875  19.248046875 3.80859375  C 19.080078125 3.32421875  18.865234375 2.939453125  18.603515625 2.654296875  C 18.341796875 2.369140625  18.0234375 2.13671875  17.6484375 1.95703125  C 17.2734375 1.77734375  16.90625 1.65625  16.546875 1.59375  C 16.1875 1.53125  15.8046875 1.5  15.3984375 1.5  C 14.9921875 1.5  14.5546875 1.599609375  14.0859375 1.798828125  C 13.6171875 1.998046875  13.185546875 2.248046875  12.791015625 2.548828125  C 12.396484375 2.849609375  12.05859375 3.130859375  11.77734375 3.392578125  C 11.49609375 3.654296875  11.26171875 3.89453125  11.07421875 4.11328125  C 10.93359375 4.28515625  10.7421875 4.37109375  10.5 4.37109375  C 10.2578125 4.37109375  10.06640625 4.28515625  9.92578125 4.11328125  C 9.73828125 3.89453125  9.50390625 3.654296875  9.22265625 3.392578125  C 8.94140625 3.130859375  8.603515625 2.849609375  8.208984375 2.548828125  C 7.814453125 2.248046875  7.3828125 1.998046875  6.9140625 1.798828125  C 6.4453125 1.599609375  6.0078125 1.5  5.6015625 1.5  C 5.1953125 1.5  4.8125 1.53125  4.453125 1.59375  C 4.09375 1.65625  3.7265625 1.77734375  3.3515625 1.95703125  C 2.9765625 2.13671875  2.658203125 2.369140625  2.396484375 2.654296875  C 2.134765625 2.939453125  1.919921875 3.32421875  1.751953125 3.80859375  C 1.583984375 4.29296875  1.5 4.8515625  1.5 5.484375  C 1.5 6.796875  2.23046875 8.18359375  3.69140625 9.64453125  L 10.5 16.20703125  L 17.296875 9.65625  Z M 19.51171875 1.453125  C 20.50390625 2.421875  21 3.765625  21 5.484375  C 21 7.2109375  20.10546875 8.96875  18.31640625 10.7578125  L 11.015625 17.7890625  C 10.875 17.9296875  10.703125 18  10.5 18  C 10.296875 18  10.125 17.9296875  9.984375 17.7890625  L 2.671875 10.734375  C 2.59375 10.671875  2.486328125 10.5703125  2.349609375 10.4296875  C 2.212890625 10.2890625  1.99609375 10.033203125  1.69921875 9.662109375  C 1.40234375 9.291015625  1.13671875 8.91015625  0.90234375 8.51953125  C 0.66796875 8.12890625  0.458984375 7.65625  0.275390625 7.1015625  C 0.091796875 6.546875  0 6.0078125  0 5.484375  C 0 3.765625  0.49609375 2.421875  1.48828125 1.453125  C 2.48046875 0.484375  3.8515625 0  5.6015625 0  C 6.0859375 0  6.580078125 0.0839843749999989  7.083984375 0.251953125000001  C 7.587890625 0.419921874999998  8.056640625 0.646484374999999  8.490234375 0.931640625  C 8.923828125 1.216796875  9.296875 1.484375  9.609375 1.734375  C 9.921875 1.984375  10.21875 2.25  10.5 2.53125  C 10.78125 2.25  11.078125 1.984375  11.390625 1.734375  C 11.703125 1.484375  12.076171875 1.216796875  12.509765625 0.931640625  C 12.943359375 0.646484374999999  13.412109375 0.419921874999998  13.916015625 0.251953125000001  C 14.419921875 0.0839843749999989  14.9140625 0  15.3984375 0  C 17.1484375 0  18.51953125 0.484375  19.51171875 1.453125  Z " fill-rule="evenodd" />
    </mask>
  </defs>
  <g transform="matrix(1 0 0 1 -740 -558 )">
    <path d="M 17.296875 9.65625  C 18.765625 8.1875  19.5 6.796875  19.5 5.484375  C 19.5 4.8515625  19.416015625 4.29296875  19.248046875 3.80859375  C 19.080078125 3.32421875  18.865234375 2.939453125  18.603515625 2.654296875  C 18.341796875 2.369140625  18.0234375 2.13671875  17.6484375 1.95703125  C 17.2734375 1.77734375  16.90625 1.65625  16.546875 1.59375  C 16.1875 1.53125  15.8046875 1.5  15.3984375 1.5  C 14.9921875 1.5  14.5546875 1.599609375  14.0859375 1.798828125  C 13.6171875 1.998046875  13.185546875 2.248046875  12.791015625 2.548828125  C 12.396484375 2.849609375  12.05859375 3.130859375  11.77734375 3.392578125  C 11.49609375 3.654296875  11.26171875 3.89453125  11.07421875 4.11328125  C 10.93359375 4.28515625  10.7421875 4.37109375  10.5 4.37109375  C 10.2578125 4.37109375  10.06640625 4.28515625  9.92578125 4.11328125  C 9.73828125 3.89453125  9.50390625 3.654296875  9.22265625 3.392578125  C 8.94140625 3.130859375  8.603515625 2.849609375  8.208984375 2.548828125  C 7.814453125 2.248046875  7.3828125 1.998046875  6.9140625 1.798828125  C 6.4453125 1.599609375  6.0078125 1.5  5.6015625 1.5  C 5.1953125 1.5  4.8125 1.53125  4.453125 1.59375  C 4.09375 1.65625  3.7265625 1.77734375  3.3515625 1.95703125  C 2.9765625 2.13671875  2.658203125 2.369140625  2.396484375 2.654296875  C 2.134765625 2.939453125  1.919921875 3.32421875  1.751953125 3.80859375  C 1.583984375 4.29296875  1.5 4.8515625  1.5 5.484375  C 1.5 6.796875  2.23046875 8.18359375  3.69140625 9.64453125  L 10.5 16.20703125  L 17.296875 9.65625  Z M 19.51171875 1.453125  C 20.50390625 2.421875  21 3.765625  21 5.484375  C 21 7.2109375  20.10546875 8.96875  18.31640625 10.7578125  L 11.015625 17.7890625  C 10.875 17.9296875  10.703125 18  10.5 18  C 10.296875 18  10.125 17.9296875  9.984375 17.7890625  L 2.671875 10.734375  C 2.59375 10.671875  2.486328125 10.5703125  2.349609375 10.4296875  C 2.212890625 10.2890625  1.99609375 10.033203125  1.69921875 9.662109375  C 1.40234375 9.291015625  1.13671875 8.91015625  0.90234375 8.51953125  C 0.66796875 8.12890625  0.458984375 7.65625  0.275390625 7.1015625  C 0.091796875 6.546875  0 6.0078125  0 5.484375  C 0 3.765625  0.49609375 2.421875  1.48828125 1.453125  C 2.48046875 0.484375  3.8515625 0  5.6015625 0  C 6.0859375 0  6.580078125 0.0839843749999989  7.083984375 0.251953125000001  C 7.587890625 0.419921874999998  8.056640625 0.646484374999999  8.490234375 0.931640625  C 8.923828125 1.216796875  9.296875 1.484375  9.609375 1.734375  C 9.921875 1.984375  10.21875 2.25  10.5 2.53125  C 10.78125 2.25  11.078125 1.984375  11.390625 1.734375  C 11.703125 1.484375  12.076171875 1.216796875  12.509765625 0.931640625  C 12.943359375 0.646484374999999  13.412109375 0.419921874999998  13.916015625 0.251953125000001  C 14.419921875 0.0839843749999989  14.9140625 0  15.3984375 0  C 17.1484375 0  18.51953125 0.484375  19.51171875 1.453125  Z " fill-rule="nonzero" fill="#ffffff" stroke="none" fill-opacity="0.996078431372549" transform="matrix(1 0 0 1 740 558 )" />
    <path d="M 17.296875 9.65625  C 18.765625 8.1875  19.5 6.796875  19.5 5.484375  C 19.5 4.8515625  19.416015625 4.29296875  19.248046875 3.80859375  C 19.080078125 3.32421875  18.865234375 2.939453125  18.603515625 2.654296875  C 18.341796875 2.369140625  18.0234375 2.13671875  17.6484375 1.95703125  C 17.2734375 1.77734375  16.90625 1.65625  16.546875 1.59375  C 16.1875 1.53125  15.8046875 1.5  15.3984375 1.5  C 14.9921875 1.5  14.5546875 1.599609375  14.0859375 1.798828125  C 13.6171875 1.998046875  13.185546875 2.248046875  12.791015625 2.548828125  C 12.396484375 2.849609375  12.05859375 3.130859375  11.77734375 3.392578125  C 11.49609375 3.654296875  11.26171875 3.89453125  11.07421875 4.11328125  C 10.93359375 4.28515625  10.7421875 4.37109375  10.5 4.37109375  C 10.2578125 4.37109375  10.06640625 4.28515625  9.92578125 4.11328125  C 9.73828125 3.89453125  9.50390625 3.654296875  9.22265625 3.392578125  C 8.94140625 3.130859375  8.603515625 2.849609375  8.208984375 2.548828125  C 7.814453125 2.248046875  7.3828125 1.998046875  6.9140625 1.798828125  C 6.4453125 1.599609375  6.0078125 1.5  5.6015625 1.5  C 5.1953125 1.5  4.8125 1.53125  4.453125 1.59375  C 4.09375 1.65625  3.7265625 1.77734375  3.3515625 1.95703125  C 2.9765625 2.13671875  2.658203125 2.369140625  2.396484375 2.654296875  C 2.134765625 2.939453125  1.919921875 3.32421875  1.751953125 3.80859375  C 1.583984375 4.29296875  1.5 4.8515625  1.5 5.484375  C 1.5 6.796875  2.23046875 8.18359375  3.69140625 9.64453125  L 10.5 16.20703125  L 17.296875 9.65625  Z " stroke-width="2" stroke="#000000" fill="none" transform="matrix(1 0 0 1 740 558 )" mask="url(#clip6)" />
    <path d="M 19.51171875 1.453125  C 20.50390625 2.421875  21 3.765625  21 5.484375  C 21 7.2109375  20.10546875 8.96875  18.31640625 10.7578125  L 11.015625 17.7890625  C 10.875 17.9296875  10.703125 18  10.5 18  C 10.296875 18  10.125 17.9296875  9.984375 17.7890625  L 2.671875 10.734375  C 2.59375 10.671875  2.486328125 10.5703125  2.349609375 10.4296875  C 2.212890625 10.2890625  1.99609375 10.033203125  1.69921875 9.662109375  C 1.40234375 9.291015625  1.13671875 8.91015625  0.90234375 8.51953125  C 0.66796875 8.12890625  0.458984375 7.65625  0.275390625 7.1015625  C 0.091796875 6.546875  0 6.0078125  0 5.484375  C 0 3.765625  0.49609375 2.421875  1.48828125 1.453125  C 2.48046875 0.484375  3.8515625 0  5.6015625 0  C 6.0859375 0  6.580078125 0.0839843749999989  7.083984375 0.251953125000001  C 7.587890625 0.419921874999998  8.056640625 0.646484374999999  8.490234375 0.931640625  C 8.923828125 1.216796875  9.296875 1.484375  9.609375 1.734375  C 9.921875 1.984375  10.21875 2.25  10.5 2.53125  C 10.78125 2.25  11.078125 1.984375  11.390625 1.734375  C 11.703125 1.484375  12.076171875 1.216796875  12.509765625 0.931640625  C 12.943359375 0.646484374999999  13.412109375 0.419921874999998  13.916015625 0.251953125000001  C 14.419921875 0.0839843749999989  14.9140625 0  15.3984375 0  C 17.1484375 0  18.51953125 0.484375  19.51171875 1.453125  Z " stroke-width="2" stroke="#000000" fill="none" transform="matrix(1 0 0 1 740 558 )" mask="url(#clip6)" />
  </g>
</svg>