<?xml version="1.0" encoding="utf-8"?>
<svg version="1.1" xmlns:xlink="http://www.w3.org/1999/xlink" width="20px" height="20px" xmlns="http://www.w3.org/2000/svg">
  <g transform="matrix(1 0 0 1 -598 -1808 )">
    <path d="M 3.83333333984376 7.41666666015624  L 1.66666666015624 6.16666666015624  C 1.25 5.91666666015624  1.08333333984376 5.41666666015624  1.33333333984376 5  C 1.58333333984376 4.58333333984376  2.08333333984376 4.5  2.5 4.66666666015624  L 4.66666666015624 5.91666666015624  C 5.08333333984376 6.16666666015624  5.16666666015624 6.66666666015624  4.91666666015624 7.08333333984376  C 4.83333333984376 7.33333333984376  4.5 7.5  4.25 7.5  C 4.08333333984376 7.5  3.91666666015624 7.5  3.83333333984376 7.41666666015624  Z M 5.41666666015624 18.75  C 5.25 18.75  5.16666666015624 18.75  5 18.6666666601562  C 4.5833333398437 18.4166666601562  4.5 17.9166666601562  4.66666666015624 17.5  L 5.91666666015624 15.3333333398438  C 6.16666666015624 15  6.66666666015624 14.8333333398438  7.08333333984376 15.0833333398438  C 7.5 15.3333333398438  7.58333333984376 15.8333333398438  7.41666667968752 16.25  L 6.16666666015624 18.3333333398438  C 6 18.5833333398438  5.66666666015624 18.75  5.41666666015624 18.75  Z M 4.66666666015624 14.0833333398438  L 2.5 15.3333333398438  C 2.33333333984376 15.4166666601562  2.16666666015624 15.4166666601562  2.08333333984376 15.4166666601562  C 1.83333333984376 15.4166666601562  1.5 15.25  1.33333333984376 15  C 1.08333333984376 14.5833333398438  1.25 14.0833333398438  1.66666667968752 13.8333333398438  L 3.83333333984376 12.5833333398438  C 4.25 12.3333333398438  4.75 12.5  5 12.9166666796875  C 5.25 13.3333333398438  5.08333333984376 13.8333333398438  4.66666666015624 14.0833333398438  Z M 14.0833333398438 15.333333359375  L 15.3333333398438 17.5000000195313  C 15.5833333398438 17.9166666796875  15.4166666796875 18.4166666796875  15 18.6666666796875  C 14.8333333398437 18.75  14.7499999999999 18.75  14.5833333398438 18.75  C 14.3333333398438 18.75  14.0000000000001 18.5833333398438  13.8333333398438 18.3333333398438  L 12.5833333398438 16.1666666796875  C 12.3333333398437 15.7500000195312  12.5 15.2500000195313  12.9166666796875 15.0000000195312  C 13.3333333398438 14.7500000195312  13.8333333398438 14.9166666796875  14.0833333398438 15.333333359375  Z M 15.3333333398438 14.0833333203125  C 14.9166666796875 13.8333333203125  14.8333333398437 13.3333333203125  15 12.9166666601562  C 15.2500000000001 12.5  15.75 12.4166666601562  16.1666666601562 12.5833333203125  L 18.3333333203125 13.8333333203125  C 18.7499999804688 14.0833333203125  18.8333333203125 14.5833333203125  18.6666666601562 14.9999999804688  C 18.4999999999999 15.25  18.25 15.4166666601562  17.9166666601562 15.4166666601562  C 17.7500000000001 15.4166666601562  17.6666666601563 15.4166666601562  17.5 15.3333333203125  L 15.3333333398438 14.0833333203125  Z M 5 1.33333333984376  C 5.41666666015624 1.08333333984376  5.91666666015624 1.25  6.16666666015624 1.66666666015624  L 7.41666666015624 3.83333332031253  C 7.58333333984376 4.25  7.5 4.75  7.08333333984376 4.91666666015624  C 6.91666666015624 5  6.83333333984376 5.08333333984376  6.66666666015624 5.08333333984376  C 6.41666666015624 5.08333333984376  6.08333332031248 4.91666667968747  5.91666666015624 4.66666667968752  L 4.66666666015624 2.5  C 4.5 2.08333333984376  4.58333333984376 1.58333333984376  5 1.33333333984376  Z M 3.33333333984376 10.8333333398438  L 0.833333339843762 10.8333333398438  C 0.333333339843762 10.8333333398438  0 10.5  0 10  C 0 9.5  0.333333339843762 9.16666666015624  0.833333339843762 9.16666666015624  L 3.33333333984376 9.16666666015624  C 3.83333333984376 9.16666666015624  4.16666667968752 9.5  4.16666667968752 10  C 4.16666667968752 10.5  3.83333333984376 10.8333333398438  3.33333333984376 10.8333333398438  Z M 10.8333333398437 19.1666666601562  C 10.8333333398437 19.6666666601562  10.5 20  10 20  C 9.5 20  9.16666666015624 19.6666666601562  9.16666666015624 19.1666666601562  L 9.16666666015624 16.6666666601562  C 9.16666666015624 16.1666666601562  9.5 15.8333333203125  10 15.8333333203125  C 10.5 15.8333333203125  10.8333333398437 16.1666666601562  10.8333333398437 16.6666666601562  L 10.8333333398437 19.1666666601562  Z M 10.8333333398437 3.33333333984376  C 10.8333333398437 3.83333333984376  10.5 4.16666666015624  10 4.16666666015624  C 9.5 4.16666666015624  9.16666666015624 3.83333332031253  9.16666666015624 3.33333332031248  L 9.16666666015624 0.833333339843762  C 9.16666666015624 0.333333339843762  9.5 0  10 0  C 10.5 0  10.8333333398437 0.333333339843762  10.8333333398437 0.833333339843762  L 10.8333333398437 3.33333333984376  Z M 14.0833333398438 4.66666664062501  C 13.9166666601563 4.91666666015624  13.5833333398437 5.08333333984376  13.3333333398438 5.08333333984376  C 13.1666666796875 5.08333333984376  13.0833333398438 5.08333333984376  12.9166666796875 5  C 12.5000000195312 4.75  12.4166666796875 4.25  12.5833333398438 3.83333333984376  L 13.8333333398438 1.66666666015624  C 14.0833333398438 1.25  14.5833333398438 1.16666666015624  15 1.33333332031253  C 15.4166666601562 1.58333332031248  15.5 2.08333332031248  15.3333333398438 2.49999998046877  L 14.0833333398438 4.66666664062501  Z M 18.6666666601562 5  C 18.9166666601563 5.41666666015624  18.75 5.91666666015624  18.3333333203125 6.16666666015624  L 16.1666666601562 7.41666666015624  C 16.0833333398437 7.5  15.9166666601562 7.5  15.75 7.5  C 15.5 7.5  15.1666666601563 7.33333333984376  15 7.08333333984376  C 14.7499999999999 6.66666667968752  14.9166666601562 6.16666667968747  15.3333333398438 5.91666667968752  L 17.5 4.66666666015624  C 17.9166666601562 4.41666666015624  18.4166666601562 4.58333332031248  18.6666666601562 5  Z M 16.6666666601562 10.8333333398438  C 16.1666666601562 10.8333333398438  15.8333333203125 10.5  15.8333333203125 10  C 15.8333333203125 9.5  16.1666666601562 9.16666666015624  16.6666666601562 9.16666666015624  L 19.1666666601562 9.16666666015624  C 19.6666666601562 9.16666666015624  20 9.5  20 10  C 20 10.5  19.6666666601562 10.8333333398438  19.1666666601562 10.8333333398438  L 16.6666666601562 10.8333333398438  Z " fill-rule="nonzero" fill="#b2b2b2" stroke="none" transform="matrix(1 0 0 1 598 1808 )" />
  </g>
</svg>