<?xml version="1.0" encoding="utf-8"?>
<svg version="1.1" xmlns:xlink="http://www.w3.org/1999/xlink" width="39px" height="21px" xmlns="http://www.w3.org/2000/svg">
  <g transform="matrix(1 0 0 1 -453 -910 )">
    <path d="M 453 910  L 492 910  L 492 931  L 453 931  L 453 910  " fill-rule="nonzero" fill="#cccccc" stroke="none" />
    <path d="M 454 911  L 491 911  L 491 930  L 454 930  L 454 911  " fill-rule="nonzero" fill="#ffffff" stroke="none" />
    <path d="M 474.855 916.3  C 473.973 916.3  473.28 915.607  473.28 914.725  C 473.28 913.843  473.973 913.15  474.855 913.15  C 475.737 913.15  476.43 913.843  476.43 914.725  C 476.43 915.607  475.737 916.3  474.855 916.3  " fill-rule="nonzero" fill="#cccccc" stroke="none" />
    <path d="M 455 930  L 455 920.1  L 464 915.6  L 476.6 924.184615384615  L 483.8 918.3  L 491 924.184615384615  L 491 930  L 455 930  " fill-rule="nonzero" fill="#169bd5" stroke="none" />
  </g>
</svg>