<?xml version="1.0" encoding="utf-8"?>
<svg version="1.1" xmlns:xlink="http://www.w3.org/1999/xlink" width="38px" height="6px" xmlns="http://www.w3.org/2000/svg">
  <g transform="matrix(1 0 0 1 -331 -74 )">
    <path d="M 27 0  C 28.68 0  30 1.32  30 3  C 30 4.68  28.68 6  27 6  C 25.32 6  24 4.68  24 3  C 24 1.32  25.32 0  27 0  Z M 38 3  C 38 4.68  36.68 6  35 6  C 33.32 6  32 4.68  32 3  C 32 1.32  33.32 0  35 0  C 36.68 0  38 1.32  38 3  Z M 16 3  C 16 1.32  17.32 0  19 0  C 20.68 0  22 1.32  22 3  C 22 4.68  20.68 6  19 6  C 17.32 6  16 4.68  16 3  Z M 3 6  C 1.32 6  0 4.68  0 3  C 0 1.32  1.32 0  3 0  C 4.68 0  6 1.32  6 3  C 6 4.68  4.68 6  3 6  Z M 11 6  C 9.32 6  8 4.68  8 3  C 8 1.32  9.32 0  11 0  C 12.68 0  14 1.32  14 3  C 14 4.68  12.68 6  11 6  Z " fill-rule="nonzero" fill="#353535" stroke="none" transform="matrix(1 0 0 1 331 74 )" />
  </g>
</svg>