<?xml version="1.0" encoding="utf-8"?>
<svg version="1.1" xmlns:xlink="http://www.w3.org/1999/xlink" width="16px" height="16px" xmlns="http://www.w3.org/2000/svg">
  <g transform="matrix(1 0 0 1 -648 -154 )">
    <path d="M 15.6315151454545 15.8448484909091  C 15.7478787818181 15.7284848545455  15.7866666545455 15.4957575818182  15.6315151454545 15.3406060545455  L 12.9163636363636 12.5478787818182  C 14.1963636363636 11.1515151454546  14.9333333272728 9.32848485454547  14.9333333272728 7.46666667272728  C 14.9333333272728 3.39393939999999  11.6363636363636 0.0969697090908994  7.56363636363633 0.0969696909091091  C 3.49090909090907 0.0969696727272762  0.193939400000005 3.39393939999999  0.193939400000005 7.46666667272728  C 0.193939400000005 11.5393939454545  3.49090909090907 14.8363636363636  7.56363636363633 14.8363636363636  C 8.72727272727272 14.8363636363636  9.85212121818179 14.5648484909091  10.8993939454546 14.0606060545455  C 11.0933333454546 13.9830302909091  11.1709090909091 13.7503030181818  11.0545454545455 13.5563636363636  C 10.9769696909091 13.3624242363636  10.7054545454546 13.2848484909091  10.5503030363637 13.4012121272727  C 9.61939394545459 13.8666666727273  8.6109090909091 14.0993939454546  7.56363636363633 14.0993939454546  C 3.91757576363636 14.0993939454546  0.96969696363638 11.1515151636363  0.96969696363638 7.50545454545454  C 0.96969696363638 3.85939392727273  3.91757576363636 0.872727272727264  7.56363636363633 0.872727272727264  C 11.2096969636364 0.872727272727264  14.1575757636363 3.82060605454543  14.1575757636363 7.46666667272728  C 14.1575757636363 9.2896969818182  13.3818181818182 11.0351515272727  12.0630303090909 12.2763636363636  C 11.9078788 12.4315151454545  11.9078788 12.6642424181818  12.0630303090909 12.8193939454546  C 12.1018181818182 12.8581818181818  12.1406060727273 12.8969697090909  12.2181818181818 12.8969696909091  L 15.0884848545455 15.8448484909091  C 15.1660606181818 15.9224242545454  15.2824242545455 15.9612121272727  15.36 15.9612121272727  C 15.4763636363636 15.9612121272727  15.5539394 15.9224242545454  15.6315151454545 15.8448484909091  Z " fill-rule="nonzero" fill="#797979" stroke="none" transform="matrix(1 0 0 1 648 154 )" />
  </g>
</svg>